<?xml version="1.0" ?><svg data-name="Layer 1" id="Layer_1" viewBox="0 0 500 500" xmlns="http://www.w3.org/2000/svg"><defs><style>.cls-1{fill:#282828;}</style></defs><title/><path class="cls-1" d="M484.85,124.74a144.17,144.17,0,0,0-2.32-25.29c-1.94-10.19-4.67-20.12-9.55-29.33A101.84,101.84,0,0,0,453.39,44a97.14,97.14,0,0,0-42.76-24.4c-14.83-4-30-4.84-45.21-4.82a.46.46,0,0,1-.09-.23H134.59c0,.08,0,.16,0,.23-8.65.16-17.32.09-25.92,1.16A123.46,123.46,0,0,0,81,22.14,97.48,97.48,0,0,0,44.25,46.26,97.15,97.15,0,0,0,19.68,89.17c-3.94,14.72-4.8,29.73-4.82,44.85L14.7,365.69v0c.28,10.45.37,21,2.13,31.36,1.87,11,4.54,21.71,9.64,31.69A101.36,101.36,0,0,0,54.77,463a91.91,91.91,0,0,0,28.31,15.35c15.12,4.88,30.72,6.75,46.55,6.84,9.88.06,19.74.31,29.62.27,71.74-.3,143.49.52,215.23-.44a169.32,169.32,0,0,0,28.23-3A95.61,95.61,0,0,0,450,459c15.78-14.08,26.43-31.3,31.24-52.09,3.15-13.59,3.93-27.38,4.07-41.21v-2.76C485.3,361.86,484.89,127.84,484.85,124.74Zm-234.62,209s-16.17,14.91-54.68,16.15c0,0-50.46,0-80.72-31.88a31.57,31.57,0,0,1-2.33-2.76c-4.59-6.1-19.34-28.08-20.39-59.78,0,0-4-32.3,18.33-64.61,0,0,20.81-27.33,49.39-36.34,0,0,26.4-7.14,50.32-3.42,0,0,28,4.35,40.08,17.08l9,8.08L233.6,201.93s-16.31-19.1-48.3-15.38c0,0-39.45,3.11-52.18,40.07,0,0-7.45,30.13.31,46.28,0,0,8.39,28.27,39.14,37.58,0,0,41,8.39,56.84-8.7,0,0,18.33-11.18,19.57-31.37H191.82l.31-34.79H287.8S299,295.89,250.23,333.78Zm157.93-69.94h-29v29H350.86v-29h-29V235.58h29v-29h28.27v29h29Z"/></svg>